<svg xmlns="http://www.w3.org/2000/svg" viewBox="0 0 100 100"><defs><linearGradient id="bronze" x1="0" y1="0" x2="1" y2="1"><stop stop-color="#f8d79b"/><stop offset=".24" stop-color="#b87942"/><stop offset=".52" stop-color="#704021"/><stop offset=".77" stop-color="#d79b5b"/><stop offset="1" stop-color="#f0bd77"/></linearGradient><linearGradient id="inner" x1="0" y1="0" x2="1" y2="1"><stop stop-color="#593620"/><stop offset="1" stop-color="#1c242b"/></linearGradient></defs><g><animateTransform attributeName="transform" type="rotate" values="-2 50 50;2 50 50;-2 50 50" dur="5s" repeatCount="indefinite"/><path d="M50 3 89 26 89 74 50 97 11 74 11 26Z" fill="url(#bronze)" stroke="#f4ca84" stroke-width="2.5"/><path d="M50 12 81 30 81 70 50 88 19 70 19 30Z" fill="url(#inner)" stroke="#7a4b2a" stroke-width="2"/><path d="M50 16 77 32 77 68 50 84 23 68 23 32Z" fill="none" stroke="#e2a866" stroke-width="1.5" opacity=".75"/><path d="M50 5V14M50 86V95M12 27l8 5M80 68l8 5M88 27l-8 5M20 68l-8 5" stroke="#fff1c3" stroke-width="2" opacity=".75"/><path d="M50 5 53 11 50 17 47 11Z" fill="#fff3d1"><animate attributeName="opacity" values=".35;1;.35" dur="2.6s" repeatCount="indefinite"/></path></g></svg>